<?xml version="1.0" encoding="utf-8"?>
<!-- Generator: Adobe Illustrator 21.1.0, SVG Export Plug-In . SVG Version: 6.00 Build 0)  -->
<svg version="1.1" id="レイヤー_1" xmlns="http://www.w3.org/2000/svg" xmlns:xlink="http://www.w3.org/1999/xlink" x="0px"
	 y="0px" viewBox="0 0 50.1 50" style="enable-background:new 0 0 50.1 50;" xml:space="preserve">
<style type="text/css">
	.st0{fill:#8C8279;}
	.st1{fill:#FFFFFF;}
	.st2{fill:#00704A;}
</style>
<g>
	<path class="st0" d="M16.5,21C10.7,21,6,16.3,6,10.5C6,4.7,10.7,0,16.5,0C22.3,0,27,4.7,27,10.5C27,16.3,22.3,21,16.5,21"/>
	<path class="st0" d="M16.5,23C7.4,23,0,29.8,0,49.9L33,50C33,29.8,25.6,23,16.5,23z"/>
</g>
<g>
	<path class="st1" d="M38.1,49.5l-7.3,0L28,23.2l-1.2,0l0.2-2.1c0.1-0.3,0.2-0.5,0.4-0.6l0.1,0l0.7-0.1l0.3-2.3
		c0-0.3,0.2-0.5,0.5-0.6l0.1,0l18.3,0c0.3,0.1,0.5,0.3,0.6,0.5l0,0.1v0.1l0.3,2.2l0.7,0.1l0.1,0c0.2,0.1,0.3,0.3,0.4,0.5l0.2,2.2
		l-1.2,0l-2.8,26.3L38.1,49.5z"/>
	<path class="st0" d="M29,18l18.3,0c0.1,0,0.1,0.1,0.1,0.1v0l0.3,2.7l1,0.1c0.1,0,0.1,0.1,0.1,0.1l0.1,1.6l-1.1,0L45,49l-6.9,0
		l-6.9,0l-2.8-26.3l-1.1,0l0.1-1.6c0-0.1,0.1-0.1,0.1-0.1l1-0.1l0.3-2.7v0C28.9,18.1,29,18,29,18 M28.9,17L28.9,17
		c-0.6,0.1-0.9,0.5-1,1l0,0.1v0l-0.2,1.8l-0.3,0l-0.1,0L27.1,20c-0.3,0.2-0.6,0.5-0.7,0.8l0,0.1l0,0.1l-0.1,1.6l-0.1,1.1l1.1,0
		l0.3,0l2.7,25.4l0.1,0.9l0.9,0l6.9,0l6.9,0l0.9,0l0.1-0.9l2.7-25.4l0.2,0l1.1,0L50,22.6L49.9,21l0-0.1l0-0.1
		c-0.1-0.3-0.3-0.6-0.6-0.8L49.1,20l-0.2,0l-0.3,0l-0.2-1.8V18l0-0.1c-0.1-0.4-0.5-0.8-0.9-0.8l-0.1,0l-0.1,0L29,17L28.9,17L28.9,17
		z"/>
</g>
<path class="st2" d="M38.1,39.6c-3,0-5.4-2.4-5.4-5.4c0-3,2.4-5.4,5.4-5.4c3,0,5.4,2.4,5.4,5.4C43.5,37.2,41.1,39.6,38.1,39.6"/>
</svg>
