<?xml version="1.0" encoding="utf-8"?>
<!-- Generator: Adobe Illustrator 24.2.3, SVG Export Plug-In . SVG Version: 6.00 Build 0)  -->
<svg version="1.1" id="レイヤー_3" xmlns="http://www.w3.org/2000/svg" xmlns:xlink="http://www.w3.org/1999/xlink" x="0px"
	 y="0px" viewBox="0 0 134.44 92" style="enable-background:new 0 0 134.44 92;" xml:space="preserve">
<style type="text/css">
	.st0{fill:#FFFFFF;}
	.st1{fill:#006241;}
</style>
<path d="M43.93,0H4.07C1.83,0,0,1.83,0,4.07v83.86C0,90.17,1.83,92,4.07,92h39.86c2.24,0,4.07-1.83,4.07-4.07V4.07
	C48,1.83,46.17,0,43.93,0z M17,6.54C17,5.69,17.69,5,18.54,5h10.92C30.31,5,31,5.69,31,6.54v0.92C31,8.31,30.31,9,29.46,9H18.54
	C17.69,9,17,8.31,17,7.46V6.54z M43,76H5V15h38V76z"/>
<g>
	<path class="st0" d="M84.68,90.49c-0.99,0-1.91-0.85-2-1.86l-6.59-67.55c-0.08-0.77-0.72-1.36-1.5-1.36h-2.59l0.21-7.41
		c0.04-0.92,0.85-1.71,1.76-1.71h1.76c0.77,0,1.41-0.58,1.5-1.34l0.67-5.86c0.11-1.01,1.09-1.9,2.09-1.9h44.91
		c1,0,1.98,0.89,2.1,1.91l0.66,5.86c0.09,0.76,0.73,1.34,1.5,1.34h1.76c0.92,0,1.73,0.79,1.76,1.73l0.21,7.39h-2.73
		c-0.78,0-1.43,0.59-1.5,1.36l-6.59,67.54c-0.09,1.01-1.01,1.86-2,1.86H84.68z"/>
	<path d="M124.89,3.02c0.22,0,0.57,0.29,0.6,0.57l0.66,5.86c0.17,1.52,1.46,2.68,3,2.68h1.76c0.09,0,0.25,0.14,0.26,0.24l0.16,5.86
		h-1.18c-1.55,0-2.85,1.18-3,2.72l-6.59,67.56c-0.02,0.24-0.31,0.49-0.5,0.49H84.68c-0.19,0-0.48-0.25-0.5-0.5l-6.59-67.54
		c-0.15-1.55-1.45-2.72-3-2.72h-1.04l0.16-5.82c0.01-0.15,0.17-0.28,0.26-0.28h1.76c1.53,0,2.82-1.15,3-2.68l0.67-5.86
		c0.03-0.27,0.37-0.56,0.59-0.56H124.89 M124.89,0H79.98c-1.77,0-3.39,1.46-3.59,3.23L75.73,9.1h-1.76c-1.73,0-3.2,1.43-3.27,3.17
		l-0.25,8.96h4.15l6.59,67.54c0.17,1.77,1.74,3.23,3.5,3.23h35.38c1.76,0,3.34-1.45,3.5-3.23l6.59-67.54h4.28l-0.25-8.96
		c-0.07-1.75-1.55-3.17-3.27-3.17h-1.76l-0.66-5.86C128.29,1.46,126.67,0,124.89,0L124.89,0z"/>
</g>
<circle class="st1" cx="102" cy="45" r="14"/>
</svg>
