<?xml version="1.0" encoding="utf-8"?>
<!-- Generator: Adobe Illustrator 15.1.0, SVG Export Plug-In . SVG Version: 6.00 Build 0)  -->
<!DOCTYPE svg PUBLIC "-//W3C//DTD SVG 1.1//EN" "http://www.w3.org/Graphics/SVG/1.1/DTD/svg11.dtd">
<svg version="1.1" id="レイヤー_1" xmlns="http://www.w3.org/2000/svg" xmlns:xlink="http://www.w3.org/1999/xlink" x="0px"
	 y="0px" width="50px" height="30px" viewBox="0 0 50 30" enable-background="new 0 0 50 30" xml:space="preserve">
<g>
	<rect x="27.928" y="1.106" fill="#FFFFFF" width="19.289" height="27.975"/>
	<g>
		<defs>
			<rect id="SVGID_1_" x="2.176" y="0.562" width="45.648" height="28.877"/>
		</defs>
		<clipPath id="SVGID_2_">
			<use xlink:href="#SVGID_1_"  overflow="visible"/>
		</clipPath>
		<path clip-path="url(#SVGID_2_)" fill="#231F20" d="M46.219,0.562H3.779c-0.884,0-1.603,0.718-1.603,1.6v25.676
			c0,0.883,0.719,1.601,1.603,1.601h42.439c0.885,0,1.605-0.718,1.605-1.601V2.162C47.824,1.28,47.104,0.562,46.219,0.562
			 M46.715,27.838c0,0.271-0.221,0.492-0.496,0.492H35.045V1.67h11.174c0.275,0,0.496,0.222,0.496,0.492V27.838z"/>
		<path clip-path="url(#SVGID_2_)" fill="#231F20" d="M44.236,7.581c0,1.863-1.525,3.372-3.402,3.372
			c-1.879,0-3.402-1.509-3.402-3.372s1.523-3.372,3.402-3.372C42.711,4.209,44.236,5.718,44.236,7.581"/>
	</g>
</g>
</svg>
